<svg width="27" height="26" viewBox="0 0 27 26" fill="none" xmlns="http://www.w3.org/2000/svg">
<path d="M16.76 17.3333L16.6162 18.0694C16.9443 18.1335 17.2752 17.9727 17.4276 17.6751L16.76 17.3333ZM8.99467 9.75L8.66559 9.07605C8.35815 9.22616 8.19127 9.56531 8.25992 9.90048L8.99467 9.75ZM9.38739 9.55824L9.71646 10.2322V10.2322L9.38739 9.55824ZM10.4551 6.81564L11.1492 6.53136L10.4551 6.81564ZM9.55254 4.61199L8.8585 4.89627L9.55254 4.61199ZM22.0213 16.7885L21.7484 17.4871L22.0213 16.7885ZM19.7648 15.9071L20.0377 15.2085H20.0377L19.7648 15.9071ZM16.9564 16.9498L17.6239 17.2916L17.6239 17.2916L16.9564 16.9498ZM18.2287 11.9167C18.2287 12.3309 18.5645 12.6667 18.9787 12.6667C19.3929 12.6667 19.7287 12.3309 19.7287 11.9167H18.2287ZM18.6409 10.2584L19.3314 9.96551L18.6409 10.2584ZM16.2394 7.91319L16.5207 7.21792L16.2394 7.91319ZM14.5413 6.83333C14.1271 6.83333 13.7913 7.16912 13.7913 7.58333C13.7913 7.99755 14.1271 8.33333 14.5413 8.33333V6.83333ZM22.666 11.9167C22.666 12.3309 23.0018 12.6667 23.416 12.6667C23.8302 12.6667 24.166 12.3309 24.166 11.9167H22.666ZM22.7405 8.60008L23.4309 8.30722L22.7405 8.60008ZM17.9375 3.90971L18.2188 3.21444V3.21444L17.9375 3.90971ZM14.5413 2.5C14.1271 2.5 13.7913 2.83579 13.7913 3.25C13.7913 3.66421 14.1271 4 14.5413 4V2.5ZM22.666 18.8002V20.5833H24.166V18.8002H22.666ZM5.66667 4H7.49255V2.5H5.66667V4ZM16.76 17.3333C16.9038 16.5972 16.904 16.5973 16.9042 16.5973C16.9042 16.5973 16.9044 16.5974 16.9045 16.5974C16.9047 16.5974 16.9049 16.5975 16.905 16.5975C16.9052 16.5975 16.9053 16.5975 16.9052 16.5975C16.9051 16.5975 16.9042 16.5973 16.9028 16.597C16.8998 16.5964 16.8943 16.5953 16.8864 16.5936C16.8704 16.5901 16.8447 16.5844 16.8098 16.5761C16.7401 16.5596 16.6344 16.5329 16.499 16.494C16.228 16.4161 15.84 16.29 15.3856 16.0998C14.4729 15.7179 13.3142 15.0867 12.292 14.0884L11.244 15.1616C12.4405 16.33 13.7777 17.053 14.8064 17.4835C15.3227 17.6996 15.7667 17.8443 16.085 17.9357C16.2442 17.9815 16.3725 18.014 16.4632 18.0355C16.5085 18.0463 16.5445 18.0543 16.5702 18.0599C16.5831 18.0627 16.5935 18.0648 16.6012 18.0664C16.605 18.0672 16.6082 18.0678 16.6107 18.0683C16.612 18.0686 16.6131 18.0688 16.614 18.069C16.6144 18.0691 16.6149 18.0692 16.6152 18.0692C16.6154 18.0693 16.6157 18.0693 16.6158 18.0693C16.616 18.0694 16.6162 18.0694 16.76 17.3333ZM12.292 14.0884C11.2704 13.0907 10.6257 11.9613 10.2361 11.0736C10.042 10.6313 9.91343 10.254 9.83414 9.99075C9.79454 9.85927 9.76738 9.75673 9.7506 9.68933C9.74221 9.65565 9.73642 9.6308 9.73297 9.61556C9.73125 9.60794 9.73012 9.60273 9.72953 9.60002C9.72924 9.59867 9.72909 9.59794 9.72907 9.59786C9.72906 9.59781 9.72909 9.59793 9.72914 9.59821C9.72917 9.59834 9.72921 9.59852 9.72925 9.59874C9.72928 9.59885 9.72932 9.59905 9.72933 9.5991C9.72937 9.59931 9.72941 9.59952 8.99467 9.75C8.25992 9.90048 8.25996 9.90071 8.26001 9.90096C8.26003 9.90106 8.26009 9.90131 8.26013 9.9015C8.26021 9.90189 8.26029 9.90232 8.26039 9.90278C8.26059 9.90372 8.26081 9.90482 8.26108 9.90609C8.26161 9.90862 8.26229 9.91181 8.26311 9.91565C8.26477 9.92332 8.26702 9.93358 8.2699 9.94633C8.27566 9.97182 8.28396 10.0073 8.29507 10.0519C8.31728 10.1411 8.35079 10.267 8.39786 10.4233C8.4919 10.7356 8.64064 11.1707 8.86256 11.6764C9.30499 12.6846 10.047 13.9926 11.244 15.1616L12.292 14.0884ZM9.32374 10.424L9.71646 10.2322L9.05831 8.88429L8.66559 9.07605L9.32374 10.424ZM11.1492 6.53136L10.2466 4.32771L8.8585 4.89627L9.76111 7.09991L11.1492 6.53136ZM22.2942 16.0899L20.0377 15.2085L19.4919 16.6057L21.7484 17.4871L22.2942 16.0899ZM16.2888 16.608L16.0924 16.9915L17.4276 17.6751L17.6239 17.2916L16.2888 16.608ZM20.0377 15.2085C18.6166 14.6534 16.9846 15.249 16.2888 16.608L17.6239 17.2916C17.9602 16.6349 18.7702 16.3238 19.4919 16.6057L20.0377 15.2085ZM9.71646 10.2322C11.0945 9.5593 11.7313 7.9526 11.1492 6.53136L9.76111 7.09991C10.0361 7.7712 9.7444 8.54929 9.05831 8.88429L9.71646 10.2322ZM7.49255 4C8.10363 4 8.64006 4.36296 8.8585 4.89627L10.2466 4.32771C9.79114 3.21583 8.69593 2.5 7.49255 2.5V4ZM24.166 18.8002C24.166 17.5969 23.4163 16.5283 22.2942 16.0899L21.7484 17.4871C22.311 17.7069 22.666 18.2316 22.666 18.8002H24.166ZM21.1973 22C11.792 22 4.198 14.5587 4.198 5.41667H2.698C2.698 15.4205 10.9973 23.5 21.1973 23.5V22ZM21.1973 23.5C22.82 23.5 24.166 22.2108 24.166 20.5833H22.666C22.666 21.3491 22.0253 22 21.1973 22V23.5ZM4.198 5.41667C4.198 4.65093 4.83868 4 5.66667 4V2.5C4.04398 2.5 2.698 3.78917 2.698 5.41667H4.198ZM19.7287 11.9167C19.7287 11.2466 19.5935 10.5836 19.3314 9.96551L17.9504 10.5512C18.1343 10.9847 18.2287 11.4486 18.2287 11.9167H19.7287ZM19.3314 9.96551C19.0692 9.34751 18.6855 8.78715 18.203 8.31596L17.155 9.38912C17.4966 9.7227 17.7666 10.1177 17.9504 10.5512L19.3314 9.96551ZM18.203 8.31596C17.7205 7.8448 17.1487 7.47197 16.5207 7.21792L15.9582 8.60846C16.4068 8.78995 16.8134 9.0555 17.155 9.38912L18.203 8.31596ZM16.5207 7.21792C15.8926 6.96387 15.2201 6.83333 14.5413 6.83333V8.33333C15.028 8.33333 15.5095 8.42696 15.9582 8.60846L16.5207 7.21792ZM24.166 11.9167C24.166 10.6776 23.9161 9.451 23.4309 8.30722L22.05 8.89294C22.4568 9.85213 22.666 10.8795 22.666 11.9167H24.166ZM23.4309 8.30722C22.9458 7.16347 22.2352 6.12541 21.3407 5.25183L20.2927 6.32499C21.0463 7.06096 21.6431 7.93371 22.05 8.89294L23.4309 8.30722ZM21.3407 5.25183C20.4462 4.37828 19.3852 3.68626 18.2188 3.21444L17.6563 4.60498C18.6433 5.00424 19.539 5.58898 20.2927 6.32499L21.3407 5.25183ZM18.2188 3.21444C17.0524 2.74263 15.8028 2.5 14.5413 2.5V4C15.6107 4 16.6692 4.20571 17.6563 4.60498L18.2188 3.21444Z" fill="#C0A7D8"/>
</svg>
