<svg width="35" height="35" viewBox="0 0 35 35" fill="none" xmlns="http://www.w3.org/2000/svg">
<path d="M28.3756 0H17.9348C17.3826 0 16.9686 0 16.5545 0.128458C16.1404 0.256917 15.7164 0.543478 15.4601 0.968379L1.54884 14.8814C-0.511723 16.9466 -0.511723 20.3755 1.54884 22.4704L12.4333 33.3498C14.4939 35.5534 17.9348 35.5534 20.1333 33.3498L33.9066 19.5652C34.1728 19.2787 34.4587 18.8834 34.715 18.4684C34.715 18.4684 34.715 18.4684 34.715 18.3103C34.8432 18.1818 34.8432 18.1818 34.8432 18.1818C34.8432 17.7668 35.001 17.5 34.8432 16.9466L35.001 6.46245C35.001 2.06522 32.7826 0 28.3756 0ZM30.7221 7.98419C29.7559 8.95257 27.9812 8.95257 27.015 7.85573C26.4629 7.44071 26.7291 7.58893 27.015 7.85573C25.9207 6.88735 25.9207 5.1087 26.8573 4.14032C27.9714 3.04348 29.7559 3.04348 30.87 4.01186C31.9742 5.09881 31.9742 6.87747 30.7221 7.98419Z" fill="white"/>
</svg>
