<svg width="27" height="26" viewBox="0 0 27 26" fill="none" xmlns="http://www.w3.org/2000/svg">
<path fill-rule="evenodd" clip-rule="evenodd" d="M22.019 17.7623C22.8289 16.354 23.2959 14.7312 23.2959 13C23.2959 7.61475 18.8264 3.25 13.3119 3.25C7.79738 3.25 3.32788 7.61475 3.32788 13C3.32788 18.3853 7.79738 22.75 13.3119 22.75C15.0846 22.75 16.7464 22.2939 18.1885 21.5031L23.2959 22.75L22.019 17.7623Z" stroke="#C0A7D8" stroke-width="1.5" stroke-linecap="round" stroke-linejoin="round"/>
<path d="M13.1155 13.3499C13.2242 13.2438 13.3995 13.2438 13.5082 13.3499C13.6169 13.4561 13.6169 13.6273 13.5082 13.7334C13.3995 13.8396 13.2242 13.8396 13.1155 13.7334C13.0079 13.6273 13.0079 13.4561 13.1155 13.3499" stroke="#C0A7D8" stroke-width="1.5" stroke-linecap="round" stroke-linejoin="round"/>
<path d="M8.67821 13.3499C8.78693 13.2438 8.9622 13.2438 9.07092 13.3499C9.17963 13.4561 9.17963 13.6273 9.07092 13.7334C8.9622 13.8396 8.78693 13.8396 8.67821 13.7334C8.57061 13.6273 8.57061 13.4561 8.67821 13.3499" stroke="#C0A7D8" stroke-width="1.5" stroke-linecap="round" stroke-linejoin="round"/>
<path d="M17.553 13.3499C17.6617 13.2438 17.837 13.2438 17.9457 13.3499C18.0544 13.4561 18.0544 13.6273 17.9457 13.7334C17.837 13.8396 17.6617 13.8396 17.553 13.7334C17.4454 13.6273 17.4454 13.4561 17.553 13.3499" stroke="#C0A7D8" stroke-width="1.5" stroke-linecap="round" stroke-linejoin="round"/>
</svg>
